<?xml version="1.0" encoding="UTF-8"?>
<svg id="Layer_3" data-name="Layer 3" xmlns="http://www.w3.org/2000/svg" viewBox="0 0 197.45 175.71">
  <defs>
    <style>
      .cls-1 {
        fill: #231f20;
        stroke-width: 0px;
      }
    </style>
  </defs>
  <path class="cls-1" d="m167.39,13.65c-4.88-.83-9.46.36-12.89,3.36-.03.02-.05.04-.07.07l-39.57,38.76c-6.5-2.72-15.94-4.01-25.51-1.88-1.77.17-1.76,1.65-1.76,1.82,0,.02.06,1.75,1.99,1.68,7.36-.24,15.07,2.96,20.11,8.36,3.95,4.23,5.84,9.29,5.34,14.25-.44,4.34-2.34,8.48-5.51,11.95-.97,1.06-2.14,2.1-3.58,3.18-.03.02-.06.05-.09.07-.21.18-21.26,18.15-35.23,28.27-8.41,6.1-16.69,8.22-22.14,8.93-.8.1-1.42.74-1.51,1.53-.09.8.37,1.56,1.12,1.84,3.12,1.18,6.16,1.77,9.32,1.77,4.02,0,8.25-.96,13.07-2.91.14-.06,14.34-6.44,44.42-24.07,10.42-6.11,16.8-15.58,17.5-25.99.37-5.55-.93-10.99-3.69-15.87l43.73-33.97s.05-.04.08-.06c1.17-1.03,2.09-2.19,2.72-3.46,1.02-1.83,1.55-3.94,1.55-6.12,0-5.73-3.96-10.56-9.41-11.48Zm-38.48,70.74c-.62,9.23-6.37,17.69-15.77,23.2-29.87,17.51-43.94,23.83-44.02,23.87-4.39,1.77-8.12,2.64-11.67,2.64-.07,0-.13,0-.2,0,4.68-1.45,10.04-3.83,15.44-7.75,13.77-9.98,34.32-27.48,35.4-28.4,1.6-1.2,2.91-2.37,4.02-3.59,3.68-4.04,5.9-8.86,6.41-13.96.6-5.98-1.62-12.02-6.27-16.99-2.76-2.95-6.14-5.3-9.83-6.93,6.16.44,11.83,2.18,15.42,4.99,7.62,5.96,11.66,14.31,11.08,22.91Zm43.25-54.79s-.05.09-.07.14c-.42.83-1.03,1.61-1.83,2.31l-43.44,33.74c-1.86-2.58-4.15-4.96-6.84-7.06-.54-.43-1.16-.83-1.82-1.23l38.67-37.88c2.66-2.3,6.11-3.17,9.96-2.51,3.83.65,6.5,3.96,6.5,8.03,0,1.6-.39,3.14-1.14,4.46Z"/>
  <path class="cls-1" d="m102.58,73.63c-.11-.66-.33-1.29-.65-1.93-.16-.32-.35-.63-.55-.93-5.34.49-5.68,6.31-5.4,9.75.23,2.88,1.22,7.49,5.08,8.33-.07-.13-.11-.25-.17-.38-.09-.19-.17-.37-.24-.56-.08-.22-.15-.43-.22-.65-.05-.18-.11-.36-.15-.54-.05-.22-.08-.43-.11-.65-.02-.18-.05-.35-.07-.53-.02-.22-.01-.44-.01-.66,0-.17,0-.35,0-.52.01-.23.05-.45.08-.68.02-.17.04-.34.07-.51.04-.24.11-.48.17-.72.04-.16.07-.32.12-.48.08-.27.17-.54.26-.81.05-.14.09-.28.14-.42.15-.41.32-.83.5-1.25.2-.47.37-.91.53-1.33,0-.02.01-.04.02-.05.15-.42.27-.82.37-1.2,0-.02,0-.04.01-.05.1-.39.17-.76.22-1.12.05-.4.08-.75.07-1.09,0-.36-.03-.7-.09-1.03Z"/>
  <path class="cls-1" d="m104.33,75.52c-.03.32-.08.65-.14.98,0,.05-.02.1-.03.15-.07.34-.15.67-.25,1.01-.02.07-.04.14-.06.21-.1.34-.22.68-.34,1.03-.02.06-.05.12-.07.18-.14.36-.28.73-.44,1.1-.2.46-.37.91-.52,1.33,0,.02-.02.04-.02.06-.14.41-.26.8-.36,1.18,0,.03-.02.06-.03.09-.09.37-.16.72-.21,1.06,0,.03-.01.07-.02.11-.04.33-.06.66-.06.97,0,.04,0,.08,0,.11,0,.31.03.61.08.91,0,.04.01.08.02.12.05.29.13.58.22.86.01.04.03.08.04.13.1.28.22.56.36.84.02.04.05.09.07.13.15.28.31.55.5.83.01.02.02.03.03.05,5.31-.53,5.66-6.14,5.39-9.46-.24-3-1.24-7.77-5.1-8.66.02.03.02.06.04.09.17.34.32.67.44,1,.01.03.03.07.04.1.12.34.21.68.28,1.01.01.07.03.13.04.2.06.33.1.65.12.98,0,.07,0,.13,0,.2.01.33.01.67-.02,1,0,.03,0,.07-.01.1Z"/>
  <path class="cls-1" d="m89.54,83.96c-.19.03-.37.05-.56.07-.22.02-.44.02-.66.01-.18,0-.36,0-.53-.01-.22-.02-.44-.05-.66-.09-.17-.03-.34-.05-.51-.08-.22-.05-.44-.11-.66-.18-.16-.05-.33-.09-.49-.14-.23-.08-.46-.18-.69-.27-.15-.06-.31-.12-.46-.19-.25-.12-.5-.25-.76-.38-.13-.07-.26-.13-.39-.2-.38-.21-.77-.44-1.16-.68-.43-.27-.84-.51-1.24-.72-.02,0-.03-.02-.05-.03-.39-.21-.77-.39-1.14-.54-.02,0-.03-.02-.05-.02-.37-.15-.72-.28-1.07-.38-.39-.11-.73-.19-1.07-.23-.36-.05-.69-.07-1.03-.06-.67.01-1.33.13-2.01.36-.34.12-.67.25-1.01.41-.31,5.36,5.4,6.55,8.84,6.78,2.89.2,7.59-.1,9-3.79-.14.05-.26.07-.4.11-.2.06-.39.11-.59.16-.23.05-.45.09-.67.12Z"/>
  <path class="cls-1" d="m73.73,78.61s.06-.01.1-.03c.36-.12.71-.21,1.06-.28.03,0,.07-.02.11-.02.35-.07.7-.1,1.04-.13.07,0,.13,0,.2-.01.33-.01.66,0,.99.03.07,0,.13.01.2.02.33.04.66.09.99.16.03,0,.07.02.1.03.32.08.63.17.94.28.05.02.1.03.15.05.32.12.64.25.96.4.07.03.13.06.2.09.32.15.64.31.96.49.06.03.11.06.17.09.34.19.68.39,1.02.6.43.27.84.5,1.24.72.02.01.04.02.06.03.38.2.75.38,1.11.53.03.01.06.03.09.04.35.15.69.27,1.02.36.03.01.07.02.1.03.32.09.64.16.95.21.04,0,.08.01.11.02.31.04.61.06.91.05.04,0,.08,0,.12,0,.3,0,.59-.04.88-.09.04,0,.09-.02.13-.02.29-.06.59-.13.88-.23.05-.02.09-.03.14-.05.3-.1.59-.23.9-.37.02,0,.04-.02.05-.03.27-5.33-5.23-6.51-8.55-6.73-3-.2-7.87.08-9.33,3.76Z"/>
  <path class="cls-1" d="m90.13,72.5c2.88-.31,7.45-1.43,8.19-5.31-.12.07-.25.11-.37.18-.18.09-.37.18-.55.26-.21.09-.43.16-.64.23-.18.06-.36.12-.54.16-.22.05-.43.09-.65.13-.18.03-.35.06-.53.08-.22.02-.44.03-.66.03-.17,0-.35.01-.52,0-.23,0-.46-.03-.68-.06-.17-.02-.34-.03-.51-.06-.24-.04-.48-.09-.72-.15-.16-.04-.32-.06-.49-.11-.27-.07-.54-.16-.81-.24-.14-.04-.28-.08-.42-.13-.42-.14-.84-.3-1.26-.47-.47-.19-.92-.35-1.35-.49-.02,0-.04-.01-.06-.02-.42-.14-.83-.25-1.21-.34-.02,0-.04,0-.05-.01-.39-.09-.76-.15-1.12-.19-.4-.04-.75-.06-1.09-.04-.36.01-.7.05-1.02.12-.66.13-1.29.37-1.91.71-.32.17-.62.36-.92.58.64,5.33,6.47,5.5,9.9,5.12Z"/>
  <path class="cls-1" d="m88.76,60.02c-2.99.33-7.73,1.46-8.52,5.34.03-.02.06-.03.09-.04.33-.18.66-.34.99-.47.03-.01.07-.03.1-.04.34-.13.67-.23,1-.31.07-.02.13-.03.2-.05.32-.07.65-.12.97-.15.07,0,.13,0,.2-.01.33-.02.67-.03,1-.01.03,0,.07,0,.1,0,.32.02.65.06.98.11.05,0,.1.01.15.02.34.06.68.13,1.02.22.07.02.14.04.21.05.34.09.69.2,1.03.31.06.02.12.04.18.06.37.13.74.26,1.11.41.47.19.92.35,1.34.49.02,0,.04.02.06.02.41.13.81.24,1.19.33.03,0,.06.02.09.02.37.08.72.14,1.07.18.04,0,.07,0,.11.01.34.03.66.04.97.04.04,0,.08,0,.11,0,.31-.01.61-.05.9-.11.04,0,.08-.02.12-.02.29-.06.57-.14.86-.24.04-.02.08-.03.13-.05.28-.11.55-.23.83-.38.04-.02.09-.05.13-.07.27-.15.55-.33.82-.52.02-.01.03-.02.05-.03-.67-5.29-6.29-5.49-9.61-5.12Z"/>
  <path class="cls-1" d="m89.99,101.97c2.8-.74,7.15-2.53,7.3-6.48-.11.09-.23.15-.34.23-.17.12-.33.23-.5.34-.2.12-.4.23-.6.33-.17.09-.34.17-.51.24-.21.09-.41.16-.62.22-.17.06-.34.12-.51.16-.21.05-.43.09-.65.13-.17.03-.34.07-.51.08-.23.03-.46.03-.68.04-.17,0-.34.02-.51.02-.24,0-.49-.02-.74-.04-.17-.01-.33-.01-.5-.03-.28-.03-.56-.07-.84-.12-.15-.02-.29-.04-.44-.06-.43-.08-.87-.17-1.32-.27-.49-.11-.96-.21-1.41-.28-.02,0-.04,0-.06-.01-.44-.07-.85-.12-1.25-.15-.02,0-.04,0-.05,0-.4-.03-.78-.03-1.14-.02-.4.02-.75.06-1.08.12-.36.07-.68.16-.99.27-.63.23-1.22.55-1.78.98-.29.22-.55.45-.82.71,1.43,5.17,7.22,4.47,10.55,3.58Z"/>
  <path class="cls-1" d="m94.45,95.18c.28-.1.55-.23.81-.37.04-.02.08-.04.12-.07"/>
  <path class="cls-1" d="m72.77,113.16c-.08-.12-.14-.23-.21-.35-.11-.17-.22-.35-.31-.52-.11-.2-.21-.41-.3-.61-.08-.17-.16-.34-.22-.52-.08-.21-.14-.42-.2-.63-.05-.17-.1-.34-.13-.52-.04-.22-.07-.43-.1-.65-.02-.17-.05-.34-.06-.52-.01-.23-.01-.46-.01-.69,0-.17,0-.34,0-.51.01-.24.04-.49.07-.73.02-.17.03-.33.05-.5.04-.27.1-.55.16-.83.03-.14.05-.29.08-.43.1-.43.21-.86.33-1.3.14-.49.25-.95.35-1.39,0-.02,0-.04.01-.06.09-.43.16-.85.21-1.24,0-.02,0-.04,0-.05.05-.4.07-.77.07-1.13,0-.4-.02-.75-.07-1.09-.05-.36-.12-.69-.22-1.01-.2-.64-.5-1.24-.9-1.83-.21-.3-.43-.58-.67-.85-5.23,1.19-4.8,7-4.07,10.37.61,2.83,2.19,7.27,6.13,7.6Z"/>
  <path class="cls-1" d="m74.25,100.66c-.02.34-.06.69-.11,1.04-.01.07-.02.14-.03.22-.06.35-.12.7-.21,1.06-.01.06-.03.12-.04.19-.09.38-.19.76-.3,1.15-.14.49-.25.95-.35,1.39,0,.02-.01.04-.01.07-.09.42-.16.83-.2,1.21,0,.03,0,.06-.01.1-.04.38-.07.73-.07,1.08,0,.04,0,.07,0,.11,0,.34.02.66.07.97,0,.04,0,.08.01.11.05.31.11.6.2.89.01.04.02.08.04.12.09.28.2.56.33.83.02.04.04.08.06.12.14.27.29.53.47.78.03.04.06.08.09.12.18.26.38.51.6.76.01.01.03.03.04.04,5.2-1.22,4.81-6.83,4.1-10.08-.63-2.94-2.25-7.54-6.19-7.92.02.03.03.06.05.08.21.31.4.62.57.94.02.03.04.06.05.09.16.32.29.64.41.97.02.06.05.13.07.19.1.32.19.63.25.95.01.07.02.13.03.2.06.33.1.66.12.99,0,.03,0,.07,0,.1.01.32.01.65,0,.98,0,.05,0,.1,0,.16Z"/>
  <path class="cls-1" d="m62.71,121.78c2.11-1.98,5.09-5.63,3.35-9.17-.06.13-.13.24-.19.36-.09.18-.18.37-.28.54-.12.2-.24.39-.37.57-.11.15-.21.31-.33.45-.14.17-.29.33-.44.49-.12.13-.24.26-.37.38-.16.15-.34.29-.51.42-.14.11-.27.22-.41.32-.19.13-.38.25-.58.36-.15.09-.29.18-.44.26-.21.11-.44.22-.67.32-.15.07-.3.14-.45.21-.26.11-.53.2-.79.3-.14.05-.27.1-.41.15-.42.14-.85.27-1.29.39-.49.13-.94.27-1.37.42-.02,0-.04.01-.06.02-.42.15-.81.3-1.17.46-.02,0-.03.01-.05.02-.36.16-.7.34-1.01.52-.35.21-.63.41-.9.62-.28.23-.52.46-.75.71-.45.5-.81,1.07-1.1,1.71-.15.33-.27.66-.39,1.01,3.72,3.87,8.47.5,10.99-1.86Z"/>
  <path class="cls-1" d="m54.11,112.64c-2.19,2.06-5.3,5.82-3.59,9.39.01-.03.03-.06.05-.09.16-.34.33-.67.51-.97.02-.03.04-.06.05-.09.19-.3.4-.58.62-.85.04-.05.08-.1.13-.16.22-.25.45-.49.69-.7.05-.04.1-.09.15-.13.25-.22.51-.42.79-.61.03-.02.06-.04.09-.06.27-.18.55-.35.85-.5.05-.02.09-.05.14-.07.3-.16.62-.3.95-.44.07-.03.13-.06.2-.08.33-.13.67-.26,1.02-.37.06-.02.12-.04.18-.06.37-.12.75-.23,1.14-.34.49-.13.94-.27,1.37-.42.02,0,.04-.01.06-.02.41-.14.79-.29,1.14-.45.03-.01.06-.03.09-.04.34-.16.66-.32.96-.5.03-.02.06-.04.09-.05.29-.17.55-.36.8-.56.03-.02.06-.05.09-.07.24-.2.46-.41.66-.63.03-.03.06-.06.08-.09.19-.22.37-.46.54-.71.02-.04.05-.08.07-.11.16-.25.3-.52.43-.8.02-.04.04-.09.06-.14.13-.29.24-.59.34-.91,0-.02.01-.04.02-.06-3.72-3.82-8.33-.59-10.75,1.69Z"/>
  <path class="cls-1" d="m56.06,107.8c2.7-1.04,6.84-3.29,6.55-7.23-.1.1-.21.17-.31.27-.15.14-.31.27-.46.39-.18.14-.37.27-.56.39-.16.1-.32.21-.48.3-.19.11-.39.2-.59.29-.16.07-.32.15-.49.21-.21.08-.42.14-.63.2-.17.05-.33.1-.5.14-.22.05-.45.08-.68.12-.17.03-.33.06-.51.08-.24.02-.49.03-.74.04-.17,0-.33.02-.5.02-.28,0-.56-.01-.85-.02-.15,0-.29,0-.44-.02-.44-.03-.88-.07-1.34-.13-.5-.06-.98-.1-1.43-.13-.02,0-.04,0-.06,0-.44-.02-.86-.03-1.26-.01-.02,0-.04,0-.05,0-.4.02-.77.05-1.13.1-.4.06-.74.14-1.07.24-.35.11-.66.23-.96.38-.6.3-1.15.68-1.67,1.17-.26.25-.5.51-.74.79,1.98,4.99,7.66,3.66,10.88,2.41Z"/>
  <path class="cls-1" d="m45.59,102.67s.06-.05.09-.07c.29-.21.59-.39.89-.55.06-.03.12-.07.18-.1.3-.15.6-.28.9-.39.06-.02.13-.04.19-.06.32-.11.64-.2.96-.27.03,0,.07-.01.1-.02.32-.06.64-.11.97-.15.05,0,.1-.01.15-.02.34-.03.69-.04,1.04-.05.07,0,.14,0,.22,0,.35,0,.71.01,1.08.04.06,0,.13,0,.19.01.39.03.78.07,1.18.11.5.06.97.1,1.42.13.02,0,.05,0,.07,0,.43.02.84.03,1.23.01.03,0,.07,0,.1,0,.38-.01.73-.05,1.08-.1.04,0,.07,0,.11-.01.33-.05.65-.13.95-.22.04-.01.07-.02.11-.03.29-.09.58-.2.85-.33.04-.02.07-.04.11-.05.26-.13.52-.28.76-.46.04-.03.07-.05.11-.08.24-.17.47-.37.7-.58.04-.03.07-.07.11-.1.22-.22.44-.46.66-.71.01-.01.02-.03.04-.05-2.01-4.94-7.49-3.69-10.6-2.49-2.8,1.08-7.1,3.39-6.87,7.35.02-.02.05-.04.08-.06.27-.26.55-.49.84-.7Z"/>
  <path class="cls-1" d="m52.65,84.65c-1.23,5.2,4.17,7.4,7.51,8.26,2.8.71,7.48,1.27,9.53-2.1-.14.02-.27.02-.41.03-.2.02-.41.04-.6.05-.23,0-.46,0-.68,0-.19,0-.38-.01-.56-.03-.22-.02-.44-.06-.65-.11-.18-.03-.35-.06-.52-.11-.21-.06-.42-.13-.63-.2-.16-.06-.33-.11-.49-.18-.21-.09-.41-.19-.62-.3-.15-.08-.31-.15-.46-.23-.21-.12-.42-.26-.63-.39-.14-.09-.28-.17-.42-.27-.23-.16-.45-.34-.68-.51-.12-.09-.23-.17-.35-.27-.34-.28-.68-.57-1.02-.88-.38-.34-.74-.65-1.09-.93-.01-.01-.03-.03-.05-.04-.35-.28-.69-.52-1.02-.74-.01,0-.03-.02-.05-.03-.33-.22-.66-.41-.98-.57-.36-.18-.68-.31-1.01-.42-.34-.11-.67-.2-1-.25-.66-.11-1.33-.11-2.04,0-.36.05-.7.12-1.1.23Z"/>
  <path class="cls-1" d="m53.41,82.76s.06,0,.1,0c.37-.05.74-.08,1.09-.09.04,0,.07,0,.11,0,.36,0,.71.02,1.05.06.07,0,.13.02.2.02.33.05.65.12.96.2.06.02.13.04.19.06.32.1.63.21.94.34.03.01.06.03.09.04.3.13.59.28.88.44.05.03.09.05.14.08.3.17.59.36.88.56.06.04.12.08.18.12.29.21.57.42.86.66.05.04.1.08.15.12.3.25.6.5.9.78.37.34.73.65,1.09.93.02.01.03.03.05.04.34.27.67.51.99.72.03.02.05.04.08.05.32.21.63.39.94.54.03.02.06.03.09.05.3.15.6.27.9.37.04.01.07.03.11.04.29.1.59.17.88.22.04,0,.08.01.12.02.29.04.59.07.89.07.04,0,.09,0,.13,0,.3,0,.6-.03.91-.07.05,0,.1-.02.15-.02.31-.05.63-.11.95-.2.02,0,.04-.01.06-.02,1.23-5.19-3.97-7.34-7.2-8.16-2.91-.74-7.76-1.34-9.85,2.02Z"/>
  <path class="cls-1" d="m76.26,66.79c-.1.18-.2.36-.31.52-.13.19-.26.38-.4.55-.12.15-.23.3-.35.44-.15.17-.31.32-.47.47-.13.12-.26.25-.39.36-.17.14-.35.27-.53.39-.14.1-.28.2-.43.3-.19.12-.4.22-.6.33-.15.08-.3.16-.45.24-.22.1-.45.19-.68.28-.15.06-.3.13-.46.18-.26.09-.54.17-.81.25-.14.04-.28.09-.42.13-.42.11-.86.22-1.31.32-.5.11-.96.22-1.39.35-.02,0-.04,0-.06.02-.43.12-.82.26-1.19.4-.02,0-.03.01-.05.02-.37.14-.72.3-1.04.47-.36.19-.65.37-.93.57-.29.21-.55.43-.78.67-.47.48-.86,1.02-1.19,1.65-.17.32-.31.65-.44.99,3.5,4.07,8.43.96,11.07-1.27,2.21-1.86,5.39-5.34,3.84-8.98-.06.13-.14.23-.21.35Z"/>
  <path class="cls-1" d="m64.55,65.82c-2.3,1.94-5.61,5.53-4.09,9.18.02-.03.03-.05.05-.08.17-.33.36-.65.56-.94.02-.03.04-.06.06-.09.21-.29.43-.56.66-.82.05-.05.09-.1.14-.15.23-.24.47-.46.73-.67.05-.04.11-.08.16-.12.26-.2.54-.4.82-.57.03-.02.06-.03.09-.05.28-.16.57-.32.87-.46.05-.02.09-.05.14-.07.31-.14.64-.27.97-.39.07-.02.14-.05.21-.07.33-.11.68-.22,1.03-.32.06-.02.12-.03.19-.05.37-.1.76-.19,1.15-.28.49-.11.95-.22,1.39-.34.02,0,.04-.01.06-.02.42-.12.8-.25,1.17-.39.03-.01.06-.02.09-.03.35-.14.68-.29.98-.45.03-.02.06-.03.1-.05.3-.16.57-.33.83-.51.03-.02.06-.04.09-.07.25-.18.48-.38.69-.59.03-.03.06-.06.09-.09.21-.21.4-.44.57-.68.03-.04.05-.07.08-.11.17-.24.33-.5.47-.78.02-.04.05-.09.07-.13.14-.28.27-.58.39-.89,0-.02.01-.04.02-.06-3.51-4.02-8.28-1.04-10.83,1.1Z"/>
  <path class="cls-1" d="m22.35,132.68c.16-.1.32-.19.49-.28.2-.1.4-.19.6-.27.17-.07.33-.14.5-.19.21-.07.42-.12.64-.17.17-.04.33-.09.51-.12.22-.04.45-.07.68-.09.17-.02.34-.05.51-.06.24-.02.49-.01.74-.02.17,0,.33,0,.5,0,.28,0,.56.03.85.06.15.01.29.02.44.03.44.05.88.11,1.33.18.5.08.97.14,1.42.18.02,0,.04,0,.06,0,.44.04.86.06,1.26.06.02,0,.04,0,.05,0,.4,0,.78-.02,1.14-.06.4-.05.74-.11,1.07-.2.35-.09.67-.2.97-.34.61-.27,1.18-.64,1.71-1.11.27-.24.52-.49.77-.76-1.79-5.06-7.51-3.95-10.78-2.83-2.74.94-6.96,3.02-6.83,6.97.11-.1.22-.16.32-.25.16-.13.32-.26.48-.37.19-.13.38-.25.57-.37Z"/>
  <path class="cls-1" d="m38.07,132.23s-.06.04-.09.06c-.3.2-.6.37-.91.52-.06.03-.12.06-.18.09-.3.14-.61.26-.92.36-.06.02-.13.04-.19.06-.32.09-.64.17-.97.23-.03,0-.07,0-.1.01-.32.05-.65.09-.98.11-.05,0-.1,0-.16.01-.34.02-.69.02-1.04,0-.07,0-.14,0-.22,0-.35-.02-.71-.04-1.08-.08-.06,0-.13-.01-.19-.02-.39-.04-.78-.1-1.17-.16-.5-.08-.97-.14-1.42-.18-.02,0-.04,0-.07,0-.43-.04-.84-.06-1.23-.06-.03,0-.07,0-.1,0-.38,0-.74.02-1.08.06-.04,0-.07,0-.11.01-.33.04-.65.1-.96.18-.04,0-.07.02-.11.03-.3.08-.58.18-.86.3-.04.02-.08.03-.11.05-.27.12-.53.26-.78.43-.04.02-.08.05-.11.07-.25.17-.49.35-.72.55-.04.03-.07.07-.11.1-.23.21-.46.44-.69.69-.01.01-.03.03-.04.04,1.81,5.02,7.34,3.98,10.49,2.9,2.84-.97,7.23-3.12,7.14-7.08-.03.02-.05.04-.08.06-.28.25-.57.47-.86.67Z"/>
  <path class="cls-1" d="m44.7,120.58c-.23.02-.46.02-.68.02-.19,0-.38,0-.56-.01-.22-.02-.44-.05-.66-.08-.18-.03-.35-.05-.53-.09-.22-.05-.43-.11-.64-.18-.17-.05-.33-.1-.5-.16-.21-.08-.42-.18-.63-.27-.15-.07-.31-.13-.46-.21-.21-.11-.43-.24-.64-.37-.14-.09-.29-.16-.43-.25-.23-.15-.46-.32-.69-.48-.12-.09-.24-.16-.36-.25-.35-.26-.7-.54-1.05-.84-.39-.33-.76-.62-1.12-.89-.02-.01-.03-.02-.05-.04-.36-.26-.71-.5-1.05-.7-.02,0-.03-.02-.05-.03-.34-.21-.68-.38-1-.53-.37-.17-.69-.29-1.02-.39-.35-.1-.68-.17-1.01-.21-.67-.08-1.34-.06-2.04.07-.36.06-.7.15-1.05.26-1.07,5.26,4.4,7.26,7.78,7.98,2.83.61,7.52.99,9.45-2.46-.14.03-.27.03-.41.05-.2.03-.4.06-.6.07Z"/>
  <path class="cls-1" d="m38.91,110.65c-2.94-.63-7.8-1.05-9.77,2.38.03,0,.06,0,.1-.01.37-.07.73-.11,1.09-.13.04,0,.07,0,.11,0,.36-.02.71,0,1.05.03.07,0,.13.01.2.02.33.04.65.09.97.17.06.02.13.03.19.05.32.08.64.18.95.3.03.01.06.03.09.04.3.12.6.26.89.41.05.02.09.05.14.07.3.16.6.34.9.53.06.04.12.08.18.12.3.2.59.4.88.62.05.04.1.08.15.12.31.24.61.48.92.74.39.33.76.62,1.12.89.02.01.04.03.05.04.35.26.69.48,1.02.69.03.02.06.04.08.05.32.19.64.36.95.51.03.01.06.03.1.05.31.14.61.25.91.34.04.01.07.02.11.03.3.08.59.14.89.18.04,0,.08.01.12.02.29.03.59.05.89.04.04,0,.09,0,.13,0,.3-.01.6-.05.91-.1.05,0,.1-.02.15-.03.31-.06.62-.14.94-.24.02,0,.04-.01.06-.02,1.03-5.24-4.24-7.19-7.5-7.89Z"/>
</svg>