<?xml version="1.0" encoding="UTF-8"?>
<svg id="Layer_3" data-name="Layer 3" xmlns="http://www.w3.org/2000/svg" viewBox="0 0 197.45 190.8">
  <defs>
    <style>
      .cls-1 {
        fill: #231f20;
        stroke-width: 0px;
      }
    </style>
  </defs>
  <path class="cls-1" d="m59.15,167.66h79.14c5.87,0,10.65-4.78,10.65-10.65v-84.4c0-2.21-.65-4.35-1.89-6.19l-13.08-23.46v-23.7c0-.21-.04-.41-.11-.6.06-.38,0-.78-.21-1.14-.48-.84-1.55-1.12-2.39-.64l-5.82,3.36-5.82-3.36c-.54-.31-1.21-.31-1.75,0l-5.82,3.36-5.81-3.36c-.54-.31-1.21-.31-1.75,0l-5.81,3.36-5.82-3.36c-.54-.31-1.21-.31-1.75,0l-5.81,3.36-5.81-3.36c-.54-.31-1.21-.31-1.75,0l-5.81,3.36-5.81-3.36c-.84-.48-1.91-.2-2.39.64-.24.42-.29.89-.18,1.32-.03.14-.06.28-.06.43v23.7l-13.09,23.46c-1.24,1.84-1.89,3.98-1.89,6.19v84.4c0,5.87,4.78,10.65,10.65,10.65Zm59.84-10.65v-84.4c0-1.54.46-3.02,1.32-4.29.03-.04.06-.09.08-.13l8.11-14.54,7.95,14.25c.95,1.39,1.45,3.02,1.45,4.71v84.4c0,3.16-1.87,5.89-4.56,7.15h-7.21c-3.94,0-7.15-3.21-7.15-7.15Zm25.04-88.82s.05.09.08.13c.87,1.27,1.33,2.75,1.33,4.29v84.4c0,3.94-3.21,7.15-7.15,7.15h-1.45c1.89-1.8,3.07-4.34,3.07-7.15v-84.4c0-2.09-.62-4.11-1.76-5.76l-8.39-15.04c-.04-.07-.09-.11-.14-.16l2.59-4.64,11.82,21.19Zm-13.57-26.53h-4.04v-17.96l4.04-2.33v20.29Zm-6.04,0h-4.69v-20.68l4.69,2.71v17.97Zm-6.69,0h-4.69v-17.96l4.69-2.71v20.67Zm-6.69,0h-4.69v-20.68l4.69,2.71v17.97Zm-6.69,0h-4.69v-17.96l4.69-2.71v20.67Zm-6.69,0h-4.69v-20.68l4.69,2.71v17.97Zm-6.69,0h-4.69v-17.96l4.69-2.71v20.68Zm-6.69,0h-4.69v-20.67l4.69,2.71v17.96Zm-6.69,0h-4.69v-17.96l4.69-2.71v20.68Zm-6.69,0h-3.94v-20.24l3.94,2.28v17.96Zm-18.91,30.95c0-1.54.46-3.02,1.32-4.29.03-.04.06-.09.08-.13l12.84-23.03h62.98l-11.86,21.26c-1.24,1.84-1.89,3.98-1.89,6.19v84.4c0,2.75,1.06,5.26,2.78,7.15h-59.12c-3.94,0-7.15-3.21-7.15-7.15v-84.4Z"/>
  <path class="cls-1" d="m84.02,94.56c-12.98,0-23.5,10.52-23.5,23.5s10.52,23.5,23.5,23.5,23.5-10.52,23.5-23.5-10.52-23.5-23.5-23.5Zm-.88,39c.11-.39.23-.73.36-1.05.02-.04.03-.08.05-.13.13-.31.28-.6.45-.88.02-.04.05-.08.07-.12.17-.27.35-.53.55-.77.03-.04.07-.08.1-.12.21-.24.43-.46.67-.68.04-.03.08-.07.12-.1.25-.21.52-.41.82-.6.04-.03.09-.05.13-.08.31-.19.63-.37.99-.55.04-.02.09-.04.13-.06.37-.18.76-.35,1.19-.51.03-.01.06-.02.1-.03.45-.17.92-.33,1.44-.49.42-.13.82-.26,1.21-.4.07-.02.14-.05.21-.07.37-.14.74-.28,1.09-.44.07-.03.14-.06.21-.09.35-.16.7-.33,1.03-.51.04-.02.07-.04.1-.06.31-.18.61-.37.9-.57.04-.03.09-.06.13-.09.29-.21.57-.44.83-.68.06-.05.11-.1.16-.15.26-.25.51-.5.74-.78.04-.05.08-.1.12-.15.22-.28.43-.58.63-.9.02-.03.03-.05.05-.07.2-.33.38-.69.54-1.07.02-.05.05-.08.07-.13,1.84,3.72-1.21,7.68-3.4,9.87-2.63,2.63-7.64,6.43-11.78,2.47Zm-1.44-1.92c-1.8-3.75,1.39-7.85,3.66-10.12,2.23-2.23,4.47-3.57,6.49-3.9.33-.05.65-.08.96-.08,1.49,0,2.86.58,4.07,1.75-.11.4-.23.73-.36,1.05-.02.04-.04.09-.05.13-.13.31-.28.6-.44.88-.03.04-.05.09-.08.13-.17.27-.35.52-.55.77-.03.04-.07.08-.1.12-.21.24-.43.46-.67.68-.04.03-.08.07-.12.1-.25.21-.52.41-.82.61-.04.03-.09.05-.13.08-.31.19-.63.38-.99.55-.04.02-.08.04-.13.06-.37.18-.77.35-1.19.51-.03.01-.06.02-.09.03-.45.17-.93.33-1.44.49-.42.13-.82.26-1.22.4-.06.02-.13.05-.19.07-.38.14-.75.29-1.1.44-.06.03-.13.06-.19.09-.36.16-.71.33-1.04.52-.03.02-.05.03-.08.05-.32.18-.63.38-.93.58-.04.03-.08.05-.12.08-.3.21-.58.44-.85.69-.05.05-.1.09-.15.14-.26.25-.51.51-.75.8-.03.04-.07.09-.1.13-.23.29-.45.59-.65.92-.01.02-.03.04-.04.06-.2.34-.38.7-.55,1.09-.02.04-.04.07-.06.11Zm-5.36-9.17c-4.11-.67-5.65-5.62-6.21-8.78-.63-3.53-.84-9.58,4.74-10.72.11.1.17.21.25.32.12.15.23.31.34.46.12.18.23.37.33.55.09.15.18.31.25.46.09.19.16.38.24.58.06.16.12.31.17.47.06.2.1.42.14.63.03.16.07.32.09.48.03.22.03.46.04.7,0,.16.02.32.01.49,0,.26-.04.53-.07.81-.02.16-.02.32-.05.49-.05.32-.12.65-.2.99-.03.14-.05.28-.09.43-.12.5-.27,1.02-.45,1.57-.13.41-.25.82-.36,1.22-.02.07-.04.14-.06.21-.1.39-.19.77-.27,1.14-.01.07-.03.15-.04.22-.07.38-.13.76-.17,1.14,0,.04,0,.07,0,.11-.03.36-.05.72-.05,1.07,0,.05,0,.1,0,.15,0,.36.03.72.08,1.08,0,.07.02.14.03.21.05.36.13.71.22,1.06.02.05.03.11.05.16.1.35.23.7.38,1.04.01.03.02.05.03.08.16.36.36.71.57,1.07.02.04.04.08.06.12Zm1.5-1.41c-.08-.15-.17-.3-.24-.45-.09-.19-.17-.39-.24-.58-.06-.15-.12-.31-.16-.46-.06-.2-.1-.42-.14-.63-.03-.16-.07-.31-.09-.48-.03-.23-.03-.46-.04-.7,0-.16-.02-.32-.01-.49,0-.26.04-.53.07-.8.02-.16.02-.32.05-.49.05-.32.12-.65.2-.99.03-.14.05-.28.09-.43.12-.5.27-1.02.45-1.57.13-.42.25-.83.36-1.23.02-.07.04-.13.05-.2.1-.39.19-.77.27-1.15.01-.07.03-.14.04-.21.07-.39.13-.77.17-1.15,0-.03,0-.07,0-.1.03-.37.05-.73.05-1.09,0-.05,0-.09,0-.14,0-.36-.03-.73-.08-1.09,0-.07-.02-.14-.03-.21-.05-.36-.13-.71-.23-1.07-.02-.05-.03-.11-.05-.16-.11-.36-.23-.71-.39-1.07,0-.02-.01-.03-.02-.05-.16-.36-.36-.72-.58-1.08-.02-.04-.04-.07-.06-.11,4.1.62,5.61,5.38,6.15,8.43.65,3.66.9,9.93-4.69,11.08-.09-.1-.17-.21-.25-.31-.11-.15-.23-.3-.33-.45-.12-.18-.23-.37-.34-.56Z"/>
</svg>