<?xml version="1.0" encoding="UTF-8"?>
<svg id="Layer_3" data-name="Layer 3" xmlns="http://www.w3.org/2000/svg" viewBox="0 0 197.45 179.95">
  <defs>
    <style>
      .cls-1 {
        fill: #231f20;
        stroke-width: 0px;
      }
    </style>
  </defs>
  <path class="cls-1" d="m119.06,62.3c.58-.37.76-1.14.39-1.72-.37-.58-1.14-.76-1.72-.39-1.96,1.23-3.87,2.28-5.41,3.07-1.98,1.02-3.35,1.61-3.37,1.62-.02,0-.03.03-.05.04-4.41-.28-9.06-.1-14.16.61-1.01.14-2.04.31-3.08.49-.84.15-1.69.31-2.56.49-2.07.42-4.2.91-6.44,1.51-.03,0-.05.03-.07.04.7.71,1.4,1.43,2.1,2.16,2.43-.62,4.74-1.12,6.96-1.53.34,4.28,2.4,8.18,6.04,11.12,4.23,3.41,9.89,4.61,14.27,4.61.5,0,.99-.02,1.45-.05,12.19-.78,31.52-5.96,32.34-6.18l2.05-.55-1.48-2.13c-10.94-15.87-23.46-24.14-37.23-24.59-7.5-.25-13.87,3.71-16.28,10.06-.34.91-.61,1.81-.81,2.71,1.06-.18,2.14-.33,3.22-.46.13-.45.27-.85.4-1.19,1.89-4.99,6.88-8.14,12.82-8.14.18,0,.37,0,.55,0,12.36.4,23.76,7.77,33.89,21.92-5.39,1.37-20.07,4.92-29.68,5.54-3.94.26-9.6-.64-13.64-3.9-3.61-2.92-4.79-6.31-4.94-9.28,2.98-.44,5.8-.69,8.49-.77,2.14,1.94,5.28,5.05,8.71,9.39.25.31.61.47.98.47.27,0,.54-.09.77-.27.54-.43.63-1.21.21-1.76-2.6-3.29-5.04-5.89-7.04-7.84,8.8.26,16.55,2.39,25.3,5.74.16.06.32.09.48.09.52,0,1.01-.33,1.21-.84.26-.67-.08-1.43-.76-1.69-.17-.06-.33-.12-.49-.18-6.43-2.43-12.47-4.24-18.85-5.12.85-.44,1.81-.95,2.82-1.53.83-.48,1.7-.99,2.59-1.55Z"/>
  <path class="cls-1" d="m54.86,76.35c.44,0,.89.02,1.33.07.86.08,2,.26,3.28.62.74-1.01,1.5-2,2.27-2.96-1.62-.57-3.36-.96-5.21-1.14-8.03-.79-15.31,4.06-18.55,12.36-2.25,5.77-6.25,21.59,5.23,43.71l.84,1.61,1.58-.89c.71-.4,17.47-10,24.85-22.75,2.67-4.62,4.97-12.04,3.42-19.02-1.07-4.8-3.59-8.67-7.2-11.3,1.92-2.29,4.05-4.63,6.43-7.04,7.67,7.29,15.06,15.73,21.09,25.25-1.71-.68-3.56-1.01-5.46-.92-3.49.17-6.71,1.68-9.06,4.27-2.35,2.59-3.56,5.94-3.39,9.43.17,3.49,1.68,6.71,4.27,9.06,2.43,2.21,5.53,3.4,8.79,3.4.21,0,.43,0,.64-.02,3.49-.17,6.71-1.68,9.06-4.27,1.55-1.71,2.56-3.71,3.05-5.81.94,2.27,1.78,4.59,2.53,6.95-6.08,1.69-10.22,7.59-9.5,14.06.39,3.48,2.11,6.59,4.84,8.77,2.34,1.87,5.19,2.86,8.14,2.86.49,0,.99-.03,1.49-.08,7.17-.81,12.35-7.3,11.55-14.47-.75-6.68-6.43-11.63-13.01-11.62-.28-.89-.56-1.78-.87-2.65,2.09,1.31,4.47,2,6.92,2,.59,0,1.18-.04,1.77-.12,3.47-.47,6.54-2.25,8.66-5.03,4.38-5.74,3.27-13.97-2.47-18.35-5.74-4.38-13.97-3.27-18.35,2.47-1.25,1.64-2.07,3.51-2.44,5.48-11.88-22.47-31.61-39.67-47.63-50.93-.79-.56-1.88-.36-2.44.43-.56.79-.36,1.88.43,2.44,6.07,4.26,12.69,9.4,19.19,15.36-1.35,1.37-2.62,2.71-3.82,4.04-1.06,1.17-2.06,2.32-3,3.47-.79.95-1.54,1.89-2.25,2.82-3.99,5.2-6.95,10.23-9.22,15.35-.58.22-1.52.57-2.73.98-1.92.65-4.5,1.45-7.31,2.12-.67.16-1.09.83-.93,1.5.14.58.65.96,1.22.96.1,0,.19-.01.29-.03,2.03-.48,3.93-1.02,5.56-1.54.97-.3,1.85-.6,2.6-.86-2.34,6.05-3.84,12.29-5.02,19.14-.03.15-.02.3,0,.44.08.64.56,1.17,1.22,1.29.09.02.17.02.26.02.72,0,1.35-.51,1.48-1.24,1.61-9.28,3.79-17.41,8.03-25.5,1.16,2.89,2.89,6.67,5.38,10.97.22.37.61.58,1.01.58.2,0,.4-.05.58-.16.56-.32.75-1.03.42-1.59-3-5.18-4.85-9.55-5.92-12.47,1.63-2.8,3.52-5.62,5.74-8.49,2.59,1.81,4.95,4.7,5.98,9.32,1.33,6-.69,12.46-3.03,16.51-5.63,9.73-17.65,17.81-21.96,20.5-3.35-6.96-10.11-24.1-4.24-39.15,2.47-6.33,7.72-10.21,13.61-10.21Zm27.79,38.02c-.49-.44-.81-1.01-.95-1.6-.24-1,0-2.09.74-2.91,1.19-1.31,3.21-1.4,4.51-.22,1.31,1.19,1.4,3.21.22,4.51-.75.82-1.83,1.16-2.85,1.01-.6-.09-1.18-.35-1.66-.79Zm24.75,24.74c-.91-.48-1.57-1.38-1.69-2.47-.2-1.75,1.06-3.33,2.82-3.53,1.75-.2,3.33,1.06,3.53,2.82.12,1.1-.33,2.13-1.12,2.8-.47.39-1.05.66-1.7.73-.66.07-1.29-.06-1.84-.34Zm13.22-29.23c-.97.33-2.08.18-2.96-.49-1.4-1.07-1.67-3.07-.6-4.48,1.07-1.4,3.07-1.67,4.48-.6.88.67,1.31,1.71,1.25,2.74-.04.61-.25,1.21-.65,1.73-.4.53-.93.89-1.52,1.09Z"/>
</svg>