<?xml version="1.0" encoding="UTF-8"?>
<svg id="Layer_1" data-name="Layer 1" xmlns="http://www.w3.org/2000/svg" viewBox="0 0 3530.35 818.8">
  <defs>
    <style>
      .cls-1 {
        fill: #fff;
        stroke-width: 0px;
      }
    </style>
  </defs>
  <path class="cls-1" d="M161.7,774.6c-3.4,4.8-5.2,10.5-5.2,16.3.1,15.4,12.6,27.9,28,27.9h503.5c15.5,0,28-12.5,28-28,0-5.8-1.8-11.5-5.2-16.2H161.7ZM427.4,159.4C358.5,83.9,403.8,0,403.8,0c0,0-97.1,72.6-38.7,156.6,41.8,60,56.6,94.4,18.9,132.1l72.2-.5s45.8-47-28.8-128.8ZM596.2,290.5s26.8-66.3-59.3-121.2c-59-37.6-70.2-70.7-66.7-87.4,0,0-44.7,38.8,27,112.4,37.9,38.8,30.2,81.3,12.3,96.2h86.7ZM350,204.7h0s4.3,39.9-44.2,62.7c-39.8,18.7-46.3,20.3-46.3,20.3l81.3.5s45.1-48.6,9.2-83.5h0ZM6.6,442.4h0C2.2,453.8,0,465.9,0,478.1c.1,19,5.1,37,12.9,53.2,7.8,16,18.3,30.4,31.2,42.6,16.2,15.2,35,27.3,55.5,35.7,20.4,8.4,42.3,13.4,64.3,13.4,5.4,0,10.6-1.5,15.1-4.4,27.8,58.5,106.7,121,219.1,121h76.3c113.3,0,192.7-63.5,219.9-122.5,31.2-67.6,43.5-182.7,43.5-240.4,0-38.6-39.9-49.4-100.8-49.5-36.2,0-115.5-1.3-200.7-1.2-85.2-.1-164.5,1.2-200.7,1.2-60,0-100.8,10.9-100.8,49.4,0,2.8,0,5.9.1,9-11.9-4.2-24.4-6.3-37-6.4-12.5,0-24.8,2.3-36.4,7-12.8,5.3-24.4,13.3-33.9,23.4-9.1,9.4-16.2,20.6-21,32.8h0ZM208.2,372.6c-4.6,0-8.4-3.7-8.4-8.4s3.8-8.4,8.4-8.4h454.6c4.6,0,8.4,3.8,8.4,8.4s-3.8,8.4-8.4,8.4H208.2ZM63.3,506.9h0c-4.8-9.8-7.3-19.9-7.2-28.9,0-5.3.9-10.5,2.8-15.5,2.1-5.4,5.3-10.3,9.3-14.4,4-4.3,8.9-7.8,14.4-10.1,4.8-2,10.1-2.9,15.3-2.9,8.3.1,16.4,1.9,24,5.3,6.4,2.7,12.2,6.4,17.4,11,4,37.3,10.9,78.6,21.1,115.3-13.6-.6-26.9-3.6-39.4-8.9-14.1-5.8-27.2-14.1-38.4-24.6-7.9-7.5-14.5-16.4-19.3-26.3h0Z"/>
  <g>
    <path class="cls-1" d="M1174.83,227.13c-2.29-43.58-4.81-96.11-4.31-141.25h-1.66c-11.12,41.66-25.42,87.62-39.8,128.8l-51.33,149.32h-50.26l-46.93-146.65c-13.46-42.29-26.26-88.77-35.29-131.46h-1.38c-1.3,44.09-3.69,97.34-6.39,143.29l-8,138.98h-61.65l25.51-351.31h83.92l46.09,141.43c13.15,42.66,24.66,82.89,33.35,122.24h1.6c9.2-38.71,20.98-79.8,34.71-122.44l48.14-141.25h83.3l22.23,351.31h-64.39l-7.45-141.02h0Z"/>
    <path class="cls-1" d="M1380.11,16.84v212.8c0,65.14,27.65,93.01,68.13,93.01,43.24,0,69.89-27.59,69.89-93.01V16.84h67.33v207.07c0,103-54.3,149.49-139.06,149.49s-133.64-44.87-133.64-148.46V16.84h67.35Z"/>
    <path class="cls-1" d="M1660.9,368.14V16.84h72.96l88.65,150.52c21.77,36.72,43.19,78.97,59.13,115.83l1.31-.24c-4.37-46.17-6.37-94.09-6.37-150.52V16.84h61.52v351.31h-67.73l-89.55-153.05c-21.38-36.68-44.29-79.34-60.79-118.33l-1.61.24c2.77,44.12,3.99,91.54,3.99,153.71v117.44h-61.52.01v-.02Z"/>
    <path class="cls-1" d="M2014.5,368.14V16.84h72.96l88.65,150.52c21.77,36.72,43.19,78.97,59.13,115.83l1.31-.24c-4.37-46.17-6.37-94.09-6.37-150.52V16.84h61.52v351.31h-67.73l-89.55-153.05c-21.38-36.68-44.29-79.34-60.79-118.33l-1.61.24c2.77,44.12,3.99,91.54,3.99,153.71v117.44h-61.52.01v-.02Z"/>
    <path class="cls-1" d="M2368.1,21.55c23.7-4.06,55.43-7.09,96.6-7.09,47.92,0,83.85,8.93,107.78,28.08,22.26,17.33,35.55,44.83,35.55,76.98,0,33.94-11.19,60.49-31.39,79.32-26.53,25.29-68.05,37.34-112.55,37.34-11.03,0-20.85-.43-29.13-1.86v133.85h-66.85V21.55h-.01ZM2434.95,185.29c7.56,1.73,16.67,2.34,28.44,2.34,48.67,0,77.72-24.26,77.72-65.19,0-37.02-25.15-59.94-71.41-59.94-16,0-27.98,1.4-34.73,2.92v119.86h-.02Z"/>
    <path class="cls-1" d="M2697.81,271.17l-29.13,96.97h-68.41l111.82-351.31h83.79l111.1,351.31h-70.51l-30.43-96.97h-108.23ZM2796.04,224.12l-25.99-84.79c-6.54-22.13-12.5-48.58-17.8-70.22h-1.38c-5.17,21.86-10.99,48.94-17.14,70.13l-25.78,84.88h88.09,0Z"/>
    <path class="cls-1" d="M2958.02,21.78c25.02-4.5,60.26-7.32,96.4-7.32,50.33,0,86.52,7.82,111.38,27.53,21.2,16.82,31.84,40.89,31.84,70.7,0,43.95-29.98,75.03-66.96,88.13v1.36c27.57,9.4,43.11,33.35,52.12,69.72,10.96,43.67,21.03,83.1,28.25,96.26h-69.32c-5.69-10.13-14.54-40.77-24.03-83.63-9.93-45.78-26.93-60.62-63.94-61.21h-28.89v144.84h-66.85V21.78h0ZM3024.86,177.48h33.78c44.25,0,71.61-23.86,71.61-59,0-37.18-25.16-56.68-68.78-56.97-17.87,0-30.13,1.26-36.61,2.91v113.05h0Z"/>
    <path class="cls-1" d="M3260.38,16.84h66.85v161.77h1.56c8.61-13.88,17.47-27.05,25.96-39.76l88.47-122.01h80.53l-119.5,150.07,126.1,201.24h-77.29l-95.88-159.42-29.94,35.53v123.89h-66.85V16.84h-.01Z"/>
    <path class="cls-1" d="M877.94,461.66c25.02-4.5,60.26-7.32,96.4-7.32,50.33,0,86.52,7.82,111.38,27.53,21.2,16.82,31.84,40.89,31.84,70.7,0,43.95-29.97,75.03-66.96,88.13v1.36c27.57,9.4,43.11,33.35,52.12,69.72,10.96,43.67,21.03,83.1,28.25,96.26h-69.32c-5.69-10.13-14.54-40.77-24.03-83.63-9.93-45.78-26.93-60.63-63.94-61.21h-28.89v144.84h-66.85v-346.37h0ZM944.78,617.36h33.78c44.25,0,71.61-23.86,71.61-59,0-37.18-25.16-56.68-68.78-56.97-17.87,0-30.14,1.26-36.61,2.91v113.05h0Z"/>
    <path class="cls-1" d="M1482.8,628.57c0,121.95-69.66,184.71-164.05,184.71s-158.3-75.34-158.3-179.2,65.19-182.63,164.03-182.63,158.33,78.39,158.33,177.12h0ZM1231.24,633.35c0,73.08,32.43,129.45,90.94,129.45s89.83-59.36,89.83-131.84c0-65.49-28.62-129-89.89-129s-90.89,58.83-90.89,131.41h0v-.02Z"/>
    <path class="cls-1" d="M1601.12,711.04l-29.13,96.97h-68.42l111.82-351.31h83.79l111.1,351.31h-70.51l-30.43-96.97h-108.23.01ZM1699.35,664.01l-25.99-84.79c-6.54-22.13-12.5-48.58-17.8-70.22h-1.38c-5.17,21.86-10.99,48.94-17.14,70.13l-25.78,84.88h88.09Z"/>
    <path class="cls-1" d="M1857.77,741.23c20.12,10.71,51.69,19.86,82.78,19.86,42.54,0,66.2-19.48,66.2-48.21,0-27.09-19.27-42.82-62.69-60.05-57.12-21.88-94.43-54.17-94.43-100.8,0-56.76,49.03-100.08,128.8-100.08,36.54,0,64.54,7.68,81.6,15.98l-15.13,50.57c-12.84-6.53-36.45-15.28-67.9-15.28-41.51,0-59.67,21.61-59.67,42.41,0,27.04,20.13,39.62,67.73,59.07,61.3,24.98,89.55,56.64,89.55,103.32,0,58.41-47.38,104.78-137.28,104.78-37.09,0-75.23-9.64-93.5-20.03l13.91-51.53h.03Z"/>
    <path class="cls-1" d="M2197.39,509.77h-97.36v-53.05h262.88v53.05h-98.2v298.25h-67.33v-298.25h.01Z"/>
    <path class="cls-1" d="M2602.24,650.91h-128.64v105.68h144.27v51.44h-211.6v-351.31h203.65v51.44h-136.32v92.15h128.64v50.6h0Z"/>
    <path class="cls-1" d="M2675.61,461.66c25.02-4.5,60.26-7.32,96.4-7.32,50.33,0,86.52,7.82,111.38,27.53,21.2,16.82,31.84,40.89,31.84,70.7,0,43.95-29.98,75.03-66.96,88.13v1.36c27.57,9.4,43.11,33.35,52.12,69.72,10.96,43.67,21.03,83.1,28.25,96.26h-69.32c-5.69-10.13-14.54-40.77-24.03-83.63-9.93-45.78-26.93-60.63-63.94-61.21h-28.89v144.84h-66.85v-346.37h0ZM2742.44,617.36h33.78c44.25,0,71.61-23.86,71.61-59,0-37.18-25.16-56.68-68.78-56.97-17.87,0-30.13,1.26-36.61,2.91v113.05h0Z"/>
    <path class="cls-1" d="M2974.39,741.23c20.12,10.71,51.69,19.86,82.79,19.86,42.54,0,66.2-19.48,66.2-48.21,0-27.09-19.27-42.82-62.69-60.05-57.12-21.88-94.43-54.17-94.43-100.8,0-56.76,49.03-100.08,128.8-100.08,36.54,0,64.54,7.68,81.6,15.98l-15.13,50.57c-12.84-6.53-36.45-15.28-67.9-15.28-41.51,0-59.67,21.61-59.67,42.41,0,27.04,20.13,39.62,67.73,59.07,61.3,24.98,89.55,56.64,89.55,103.32,0,58.41-47.38,104.78-137.28,104.78-37.09,0-75.23-9.64-93.5-20.03l13.91-51.53h.02Z"/>
  </g>
</svg>